<?xml version="1.0" encoding="utf-8"?>
<!-- Generator: Adobe Illustrator 27.9.0, SVG Export Plug-In . SVG Version: 6.00 Build 0)  -->
<svg version="1.1" id="Layer_1" xmlns="http://www.w3.org/2000/svg" xmlns:xlink="http://www.w3.org/1999/xlink" x="0px" y="0px"
	 viewBox="0 0 1598.6 346.3" style="enable-background:new 0 0 1598.6 346.3;" xml:space="preserve">
<style type="text/css">
	.st0{fill:url(#SVGID_1_);}
</style>
<g>
	<linearGradient id="SVGID_1_" gradientUnits="userSpaceOnUse" x1="61.1709" y1="173.1595" x2="1537.4181" y2="173.1595">
		<stop  offset="0" style="stop-color:#E15B29"/>
		<stop  offset="0.3944" style="stop-color:#F8822D"/>
		<stop  offset="0.512" style="stop-color:#FF8F2E"/>
		<stop  offset="0.6345" style="stop-color:#FF9A30"/>
		<stop  offset="0.8517" style="stop-color:#FFB936"/>
		<stop  offset="1" style="stop-color:#FFD13A"/>
	</linearGradient>
	<path class="st0" d="M252.2,94c43.7,43.7,43.7,114.5,0,158.2c-43.7,43.7-114.5,43.7-158.2,0c-43.7-43.7-43.7-114.5,0-158.2
		c12.3-12.3,26.7-21.1,42.1-26.5c23.9-8.4,50.1-8.4,74,0C225.4,72.9,239.9,81.8,252.2,94z M1264.4,90.3c-6-10.4-15.4-16.9-25.7-19.5
		c-17.1-4.3-36.5,2.2-46.5,19.5l-72.6,125.7c-16,27.8,4,62.5,36.1,62.5h145.1c32.1,0,52.1-34.7,36.1-62.5L1264.4,90.3z M403.3,67.9
		H298v210.6h105.3c26.9,0,53.9-10.3,74.5-30.8c41.1-41.1,41.1-107.8,0-148.9C457.2,78.1,430.2,67.9,403.3,67.9z M671.8,100.9
		c-40.6,40.6-40.6,106.5,0,147.1c20.3,20.3,46.9,30.5,73.6,30.5h104V177.6h-6.5h-89.5v-14.4h96.1V70.4h-104
		C718.8,70.4,692.1,80.5,671.8,100.9z M600,72.1c-3.3-1.9-6.9-3.4-10.6-4.6c-5-1.6-10.4-2.4-15.9-2.4c-5.6,0-10.9,0.9-16,2.4
		c-21.6,6.8-37.3,27-37.3,50.9v160h106.7v-160C626.9,98.6,616.1,81.3,600,72.1z M1337.2,67.1v0.4v88.7h47.3v122.2h105.4V156.3h47.5
		V67.5v-0.4H1337.2z M988.2,129.6h-14.4V70.2H867.1v93v14.4v100.9h106.7v-60.5h14.4v60.5h106.7V70.2H988.2V129.6z"/>
</g>
</svg>
