<?xml version="1.0" encoding="UTF-8"?>
<svg id="Layer_2" data-name="Layer 2" xmlns="http://www.w3.org/2000/svg" xmlns:xlink="http://www.w3.org/1999/xlink" viewBox="0 0 807.92 137.8">
  <defs>
    <style>
      .cls-1 {
        fill: url(#linear-gradient);
        stroke-width: 0px;
      }
    </style>
    <linearGradient id="linear-gradient" x1="0" y1="68.9" x2="807.92" y2="68.9" gradientUnits="userSpaceOnUse">
      <stop offset="0" stop-color="#e15b29"/>
      <stop offset=".39" stop-color="#f7822c"/>
      <stop offset=".51" stop-color="#ff8f2e"/>
      <stop offset=".63" stop-color="#ff9a30"/>
      <stop offset=".85" stop-color="#ffb835"/>
      <stop offset="1" stop-color="#ffd13a"/>
    </linearGradient>
  </defs>
  <g id="Layer_1-2" data-name="Layer 1">
    <path class="cls-1" d="m117.62,117.62c-26.91,26.91-70.53,26.91-97.44,0-26.91-26.91-26.91-70.53,0-97.44,26.91-26.91,70.53-26.91,97.44,0,26.91,26.91,26.91,70.53,0,97.44ZM714.34,14.79l-47.14,81.65c-9.57,16.58,2.39,37.31,21.54,37.31h94.28c19.15,0,31.11-20.73,21.54-37.31l-47.14-81.65c-9.57-16.58-33.51-16.58-43.08,0Zm-450.87,8.26c-12.66-12.66-29.26-18.99-45.85-18.99h-64.84v129.68h64.84c16.59,0,33.19-6.33,45.85-18.99,25.32-25.32,25.32-66.38,0-91.7ZM586.41,4.06c-16.59,0-33.19,6.33-45.85,18.99-25.32,25.32-25.32,66.38,0,91.7,12.66,12.66,29.26,18.99,45.85,18.99h64.84V4.06h-64.84Zm-207.69,64.84v64.84s97.26,0,97.26,0c17.91,0,32.42-14.52,32.42-32.42h0c0-17.91-14.52-32.42-32.42-32.42h-97.26ZM411.14,4.06c-17.91,0-32.42,14.52-32.42,32.42h0c0,17.91,14.52,32.42,32.42,32.42h97.26s0-64.84,0-64.84h-97.26Zm-49.2,30.72c0-17.91-14.52-32.42-32.42-32.42h-.85c-17.91,0-32.42,14.52-32.42,32.42v98.97s65.69,0,65.69,0V34.77Z"/>
  </g>
</svg>